<?xml version="1.0" encoding="UTF-8"?>
<svg id="Layer_2" xmlns="http://www.w3.org/2000/svg" viewBox="0 0 340.52 220.97">
  <defs>
    <style>
      .cls-1 {
        fill: #fff;
        stroke: #000;
        stroke-miterlimit: 10;
        stroke-width: 1.95px;
      }
    </style>
  </defs>
  <g id="Logo-Black_x26_White">
    <path class="cls-1" d="M267.94,106.84l5.61,28.64-14.71,6.1,19.72,8.81-.74,28.92s-14.39,9.31-47.43-1.51c-33.04-10.81,12.92-79.43,12.92-79.43l19.18-16.28,5.46,24.75-12.46,5.95"/>
    <path class="cls-1" d="M210.97,82.93l15.54,26.82,18.2-21.29-12.05,90.18s-22.19-7.75-23.69-9.66-10.67-80.94-10.67-80.94l12.67-5.11Z"/>
    <path class="cls-1" d="M175.46,73.22c1.6-1.94,21.7-22.95,21.7-22.95,0,0,14.78,27.5,17.29,31.8l-12.44,13,12.74,76.74-25.48-12.42-3.03-31.97-12.66,21.84s-21.82-13.09-21.82-13.76,23.7-62.28,23.7-62.28"/>
    <line class="cls-1" x1="191.7" y1="85.38" x2="197.46" y2="66.58"/>
    <path class="cls-1" d="M150.66,107.69l16.99,12.85-5.71,21.89c-3.11-1.35-25.9-19.09-25.9-19.09l5.17-82.71,36.38,28.29-6.92,22.62-13.63-6.67,13.63,6.67-7.2,25.83"/>
    <path class="cls-1" d="M28.4,119.88l-9.8-12.19L1.46,152.2l50.4-3.75-10.1-10.92c-1.15-.82,34.25-48.82,82.64.4,55.4,56.34,132.38,111.16,180.47,55.29h0s9.65,24.65,9.65,24.65l24.48-89.59-55.53,27.06,6.66,16.31h0c-35.19,35.67-113.39-15.99-156.46-49.45-43.08-33.46-75.69-28.21-88.89-16.04l-16.39,13.72Z"/>
    <polygon class="cls-1" points="85.87 30.36 102.92 49.39 112.33 41.1 121.73 51.33 141.45 36.68 136.04 123.34 120.21 112.17 113.66 100.27 107.59 104.7 77.94 91.52 71.52 30.36 85.87 30.36"/>
    <path class="cls-1" d="M57.79,36.38l2.88,17.97,35.49,12.72,1.35,33.43c-43.31-8.97-49.95,5.08-52.74,5.65-2.12-4.15-12.63-21.38-12.63-21.38,0,0,17.89-4.71,20.92-10.52l-16.98-4.41-10.01-40.37L53.7,1.27l32.46,22.12,2.89,35.86h0l-10.31,1.58-14.88-5.33-6.06-19.11h0Z"/>
  </g>
</svg>